<svg width="115" height="83" viewBox="0 0 115 83" fill="none" xmlns="http://www.w3.org/2000/svg">
<rect y="4" width="115" height="75" rx="8" fill="#EEEEEE"/>
<path d="M26.584 18.88C33.1547 18.88 37.848 20.0747 40.664 22.464C43.48 24.8533 44.888 28.48 44.888 33.344C44.888 36.2027 44.184 38.7627 42.776 41.024C41.368 43.2427 39.2347 44.992 36.376 46.272C33.5173 47.552 30.0187 48.192 25.88 48.192H23.192V53.824C23.192 55.5307 23.384 56.8107 23.768 57.664C24.152 58.5173 24.8133 59.1147 25.752 59.456C26.7333 59.7547 28.2053 59.904 30.168 59.904C30.168 60.672 30.04 61.4187 29.784 62.144C29.528 62.8693 29.1867 63.488 28.76 64H10.136C9.66667 63.488 9.304 62.8693 9.048 62.144C8.792 61.4187 8.664 60.672 8.664 59.904C10.1147 59.904 11.1387 59.6693 11.736 59.2C12.376 58.688 12.696 57.856 12.696 56.704V26.624C12.696 25.4293 12.376 24.5973 11.736 24.128C11.1387 23.616 10.1147 23.36 8.664 23.36C8.664 21.9093 9.13333 20.5653 10.072 19.328C12.9307 19.328 16.8133 19.2213 21.72 19.008C24.1947 18.9227 25.816 18.88 26.584 18.88ZM33.752 33.152C33.752 30.4213 33.112 28.2027 31.832 26.496C30.5947 24.7893 28.504 23.936 25.56 23.936C24.6213 23.936 23.832 24.0213 23.192 24.192V42.944C23.576 43.0293 24.1307 43.072 24.856 43.072C28.3973 43.072 30.7653 42.1333 31.96 40.256C33.1547 38.3787 33.752 36.0107 33.752 33.152ZM109.308 19.328C109.948 20.4373 110.268 21.7813 110.268 23.36C108.775 23.36 107.601 23.5947 106.748 24.064C105.937 24.4907 105.383 25.2587 105.084 26.368L97.02 55.68C96.1667 58.7093 95.0787 60.928 93.756 62.336C92.476 63.744 90.7907 64.448 88.7 64.448H85.116L79.228 43.84L76.732 34.432L74.684 43.904L71.42 55.68C70.5667 58.7947 69.5427 61.0347 68.348 62.4C67.1533 63.7653 65.5107 64.448 63.42 64.448H59.964L48.636 26.368C48.2947 25.216 47.8253 24.4267 47.228 24C46.6307 23.5733 45.628 23.36 44.22 23.36C44.22 21.7387 44.54 20.3947 45.18 19.328H62.46C63.1853 20.7787 63.548 22.1227 63.548 23.36C62.0547 23.36 61.0307 23.616 60.476 24.128C59.9213 24.64 59.644 25.3227 59.644 26.176L65.148 46.848L66.172 52.096L72.252 28.736C72.5933 26.944 73.148 25.4507 73.916 24.256C74.7267 23.0613 75.7507 22.464 76.988 22.464H83.708L90.044 46.848L91.452 52.352L92.924 46.72L97.66 28.288C97.788 27.8187 97.852 27.392 97.852 27.008C97.852 25.8987 97.4467 25.024 96.636 24.384C95.8253 23.7013 94.7373 23.36 93.372 23.36C93.372 21.7387 93.6707 20.3947 94.268 19.328H109.308Z" fill="black"/>
</svg>
